<svg width="25" height="25" viewBox="0 0 25 25" fill="none" xmlns="http://www.w3.org/2000/svg">
<path d="M12.5 3.125C17.6562 3.125 21.875 7.34375 21.875 12.5C21.875 17.6562 17.6562 21.875 12.5 21.875C7.34375 21.875 3.125 17.6562 3.125 12.5C3.125 7.34375 7.34375 3.125 12.5 3.125ZM12.5 1.5625C6.48438 1.5625 1.5625 6.48438 1.5625 12.5C1.5625 18.5156 6.48438 23.4375 12.5 23.4375C18.5156 23.4375 23.4375 18.5156 23.4375 12.5C23.4375 6.48438 18.5156 1.5625 12.5 1.5625Z" fill="#828F1A"/>
<path d="M18.75 11.7188H13.2812V6.25H11.7188V11.7188H6.25V13.2812H11.7188V18.75H13.2812V13.2812H18.75V11.7188Z" fill="#828F1A"/>
</svg>
