<svg width="15" height="15" viewBox="0 0 15 15" fill="none" xmlns="http://www.w3.org/2000/svg">
<path d="M7.47078 5.54167C7.79295 5.54167 8.05412 5.2805 8.05412 4.95833C8.05412 4.63617 7.79295 4.375 7.47078 4.375C7.14862 4.375 6.88745 4.63617 6.88745 4.95833C6.88745 5.2805 7.14862 5.54167 7.47078 5.54167Z" fill="#555555"/>
<path d="M8.75004 9.58333H7.91671V6.25H6.66671C6.5562 6.25 6.45022 6.2939 6.37208 6.37204C6.29394 6.45018 6.25004 6.55616 6.25004 6.66667C6.25004 6.77717 6.29394 6.88315 6.37208 6.96129C6.45022 7.03943 6.5562 7.08333 6.66671 7.08333H7.08337V9.58333H6.25004C6.13953 9.58333 6.03355 9.62723 5.95541 9.70537C5.87727 9.78351 5.83337 9.88949 5.83337 10C5.83337 10.1105 5.87727 10.2165 5.95541 10.2946C6.03355 10.3728 6.13953 10.4167 6.25004 10.4167H8.75004C8.86055 10.4167 8.96653 10.3728 9.04467 10.2946C9.12281 10.2165 9.16671 10.1105 9.16671 10C9.16671 9.88949 9.12281 9.78351 9.04467 9.70537C8.96653 9.62723 8.86055 9.58333 8.75004 9.58333Z" fill="#555555"/>
<path d="M7.5 2.5C6.5111 2.5 5.5444 2.79324 4.72215 3.34265C3.89991 3.89206 3.25904 4.67295 2.8806 5.58658C2.50217 6.50021 2.40315 7.50555 2.59608 8.47545C2.789 9.44536 3.26521 10.3363 3.96447 11.0355C4.66373 11.7348 5.55465 12.211 6.52455 12.4039C7.49446 12.5969 8.49979 12.4978 9.41342 12.1194C10.327 11.741 11.1079 11.1001 11.6573 10.2779C12.2068 9.45561 12.5 8.48891 12.5 7.5C12.5 6.17392 11.9732 4.90215 11.0355 3.96447C10.0979 3.02678 8.82608 2.5 7.5 2.5ZM7.5 11.6667C6.67591 11.6667 5.87033 11.4223 5.18513 10.9645C4.49992 10.5066 3.96587 9.85587 3.6505 9.09451C3.33514 8.33316 3.25263 7.49538 3.4134 6.68712C3.57417 5.87887 3.97101 5.13644 4.55372 4.55372C5.13644 3.971 5.87887 3.57417 6.68713 3.41339C7.49538 3.25262 8.33316 3.33514 9.09452 3.6505C9.85588 3.96587 10.5066 4.49992 10.9645 5.18512C11.4223 5.87033 11.6667 6.67591 11.6667 7.5C11.6667 8.04717 11.5589 8.58899 11.3495 9.09451C11.1401 9.60004 10.8332 10.0594 10.4463 10.4463C10.0594 10.8332 9.60004 11.1401 9.09452 11.3495C8.58899 11.5589 8.04718 11.6667 7.5 11.6667Z" fill="#555555"/>
</svg>
