<svg width="75" height="75" viewBox="0 0 75 75" fill="none" xmlns="http://www.w3.org/2000/svg">
<path fill-rule="evenodd" clip-rule="evenodd" d="M72.7875 13.9359C73.4401 14.1964 73.9997 14.6464 74.394 15.2279C74.7884 15.8094 74.9995 16.4958 75 17.1984V57.8016C74.9995 58.5042 74.7884 59.1905 74.394 59.7721C73.9997 60.3536 73.4401 60.8036 72.7875 61.0641L38.8031 74.6578C37.9651 74.993 37.0302 74.993 36.1922 74.6578L2.20781 61.0641C1.5561 60.8029 0.997525 60.3525 0.604034 59.7711C0.210542 59.1896 0.000163406 58.5037 0 57.8016L0 17.1984C0.000163406 16.4963 0.210542 15.8104 0.604034 15.2289C0.997525 14.6474 1.5561 14.1971 2.20781 13.9359L34.8891 0.862494L34.9078 0.857806L36.1922 0.342181C37.0316 0.00577199 37.9684 0.00577199 38.8078 0.342181L40.0922 0.857806L40.1109 0.862494L72.7875 13.9359ZM66.3469 16.4062L37.5 27.9469L8.65312 16.4062L4.6875 17.9953V19.8703L35.1562 32.0578V69.1922L37.5 70.1297L39.8438 69.1922V32.0625L70.3125 19.875V18L66.3469 16.4109V16.4062Z" fill="#828F1A"/>
</svg>
