<svg width="65" height="65" viewBox="0 0 65 65" fill="none" xmlns="http://www.w3.org/2000/svg">
<path fill-rule="evenodd" clip-rule="evenodd" d="M63.0825 12.0778C63.6481 12.3035 64.133 12.6935 64.4748 13.1975C64.8166 13.7015 64.9995 14.2964 65 14.9053V50.0947C64.9995 50.7036 64.8166 51.2985 64.4748 51.8025C64.133 52.3065 63.6481 52.6965 63.0825 52.9222L33.6294 64.7034C32.9031 64.9939 32.0929 64.9939 31.3666 64.7034L1.91344 52.9222C1.34862 52.6958 0.864522 52.3055 0.523496 51.8016C0.18247 51.2977 0.000141618 50.7032 0 50.0947L0 14.9053C0.000141618 14.2968 0.18247 13.7023 0.523496 13.1984C0.864522 12.6945 1.34862 12.3042 1.91344 12.0778L30.2372 0.7475L30.2534 0.743437L31.3666 0.296562C32.0941 0.00500748 32.9059 0.00500748 33.6334 0.296562L34.7466 0.743437L34.7628 0.7475L63.0825 12.0778ZM57.5006 14.2187L32.5 24.2206L7.49937 14.2187L4.0625 15.5959V17.2209L30.4688 27.7834V59.9666L32.5 60.7791L34.5312 59.9666V27.7875L60.9375 17.225V15.6L57.5006 14.2228V14.2187Z" fill="#828F1A" fill-opacity="0.6"/>
<path d="M27.6092 36.7273C27.6092 38.3134 27.3085 39.6629 26.7072 40.7756C26.1106 41.8883 25.2962 42.7382 24.264 43.3253C23.2366 43.9077 22.0813 44.1989 20.7981 44.1989C19.5055 44.1989 18.3455 43.9053 17.318 43.3182C16.2905 42.7311 15.4785 41.8812 14.8819 40.7685C14.2853 39.6558 13.987 38.3087 13.987 36.7273C13.987 35.1411 14.2853 33.7917 14.8819 32.679C15.4785 31.5663 16.2905 30.7187 17.318 30.1364C18.3455 29.5492 19.5055 29.2557 20.7981 29.2557C22.0813 29.2557 23.2366 29.5492 24.264 30.1364C25.2962 30.7187 26.1106 31.5663 26.7072 32.679C27.3085 33.7917 27.6092 35.1411 27.6092 36.7273ZM24.4913 36.7273C24.4913 35.6998 24.3374 34.8333 24.0297 34.1278C23.7266 33.4223 23.2981 32.8873 22.7441 32.5227C22.1902 32.1581 21.5415 31.9759 20.7981 31.9759C20.0547 31.9759 19.4061 32.1581 18.8521 32.5227C18.2981 32.8873 17.8672 33.4223 17.5595 34.1278C17.2565 34.8333 17.1049 35.6998 17.1049 36.7273C17.1049 37.7547 17.2565 38.6212 17.5595 39.3267C17.8672 40.0322 18.2981 40.5672 18.8521 40.9318C19.4061 41.2964 20.0547 41.4787 20.7981 41.4787C21.5415 41.4787 22.1902 41.2964 22.7441 40.9318C23.2981 40.5672 23.7266 40.0322 24.0297 39.3267C24.3374 38.6212 24.4913 37.7547 24.4913 36.7273ZM29.8873 44V29.4545H39.5179V31.9901H32.9625V35.456H38.8787V37.9915H32.9625V44H29.8873ZM41.5865 44V29.4545H51.2172V31.9901H44.6618V35.456H50.5779V37.9915H44.6618V44H41.5865Z" fill="black" fill-opacity="0.5"/>
</svg>
