<svg width="29" height="36" viewBox="0 0 29 36" fill="none" xmlns="http://www.w3.org/2000/svg">
<path d="M18.3945 26.65C18.3945 27.6917 17.8841 28.5771 16.8633 29.3062C15.8424 30.0354 14.6029 30.4 13.1445 30.4C11.6862 30.4 10.4466 30.0354 9.42578 29.3062C8.40495 28.5771 7.89453 27.6917 7.89453 26.65C7.89453 25.8687 8.21354 25.1526 8.85156 24.5016C9.48958 23.8505 10.3372 23.3883 11.3945 23.1148V10.4H14.8945V23.1148C15.9518 23.3883 16.7995 23.8505 17.4375 24.5016C18.0755 25.1526 18.3945 25.8687 18.3945 26.65ZM21.8945 26.65C21.8945 25.6474 21.5846 24.7099 20.9648 23.8375C20.3451 22.9651 19.4883 22.2359 18.3945 21.65V6.64999C18.3945 5.60833 17.8841 4.72291 16.8633 3.99374C15.8424 3.26458 14.6029 2.89999 13.1445 2.89999C11.6862 2.89999 10.4466 3.26458 9.42578 3.99374C8.40495 4.72291 7.89453 5.60833 7.89453 6.64999V21.65C6.80078 22.2359 5.94401 22.9651 5.32422 23.8375C4.70443 24.7099 4.39453 25.6474 4.39453 26.65C4.39453 28.3818 5.24674 29.8564 6.95117 31.0738C8.6556 32.2913 10.7201 32.9 13.1445 32.9C15.569 32.9 17.6335 32.2913 19.3379 31.0738C21.0423 29.8564 21.8945 28.3818 21.8945 26.65ZM25.3945 26.65C25.3945 29.0588 24.196 31.1194 21.7988 32.8316C19.4017 34.5439 16.5169 35.4 13.1445 35.4C9.77214 35.4 6.88737 34.5439 4.49023 32.8316C2.0931 31.1194 0.894531 29.0588 0.894531 26.65C0.894531 24.2802 2.0612 22.2424 4.39453 20.5367V6.64999C4.39453 4.91822 5.24674 3.44361 6.95117 2.22617C8.6556 1.00872 10.7201 0.399994 13.1445 0.399994C15.569 0.399994 17.6335 1.00872 19.3379 2.22617C21.0423 3.44361 21.8945 4.91822 21.8945 6.64999V20.5367C24.2279 22.2424 25.3945 24.2802 25.3945 26.65ZM28.8945 15.4V17.9H23.6445V15.4H28.8945ZM28.8945 10.4V12.9H23.6445V10.4H28.8945ZM28.8945 5.39999V7.89999H23.6445V5.39999H28.8945Z" fill="url(#paint0_linear_59_44)" fill-opacity="0.91"/>
<defs>
<linearGradient id="paint0_linear_59_44" x1="14.8945" y1="0.399994" x2="14.8945" y2="35.4" gradientUnits="userSpaceOnUse">
<stop offset="0.177083" stop-color="#FF0000"/>
<stop offset="0.916667" stop-color="#087CE7"/>
</linearGradient>
</defs>
</svg>
