<svg width="75" height="75" viewBox="0 0 75 75" fill="none" xmlns="http://www.w3.org/2000/svg">
<path d="M37.5 4.6875C19.3799 4.6875 4.6875 19.3799 4.6875 37.5C4.6875 55.6201 19.3799 70.3125 37.5 70.3125C55.6201 70.3125 70.3125 55.6201 70.3125 37.5C70.3125 19.3799 55.6201 4.6875 37.5 4.6875ZM37.5 64.7461C22.4561 64.7461 10.2539 52.5439 10.2539 37.5C10.2539 22.4561 22.4561 10.2539 37.5 10.2539C52.5439 10.2539 64.7461 22.4561 64.7461 37.5C64.7461 52.5439 52.5439 64.7461 37.5 64.7461Z" fill="#828F1A"/>
<path d="M33.9844 24.6094C33.9844 25.5418 34.3548 26.436 35.0141 27.0953C35.6734 27.7546 36.5676 28.125 37.5 28.125C38.4324 28.125 39.3266 27.7546 39.9859 27.0953C40.6452 26.436 41.0156 25.5418 41.0156 24.6094C41.0156 23.677 40.6452 22.7828 39.9859 22.1235C39.3266 21.4641 38.4324 21.0938 37.5 21.0938C36.5676 21.0938 35.6734 21.4641 35.0141 22.1235C34.3548 22.7828 33.9844 23.677 33.9844 24.6094ZM39.2578 32.8125H35.7422C35.4199 32.8125 35.1562 33.0762 35.1562 33.3984V53.3203C35.1562 53.6426 35.4199 53.9062 35.7422 53.9062H39.2578C39.5801 53.9062 39.8438 53.6426 39.8438 53.3203V33.3984C39.8438 33.0762 39.5801 32.8125 39.2578 32.8125Z" fill="#828F1A"/>
</svg>
