<svg width="28" height="30" viewBox="0 0 28 30" fill="none" xmlns="http://www.w3.org/2000/svg">
<path d="M17.0333 25C17.219 25 17.397 24.921 17.5283 24.7803C17.6596 24.6397 17.7333 24.4489 17.7333 24.25C17.7333 24.0511 17.6596 23.8603 17.5283 23.7197C17.397 23.579 17.219 23.5 17.0333 23.5H7.93334C7.19073 23.5 6.47854 23.1839 5.95344 22.6213C5.42834 22.0587 5.13334 21.2956 5.13334 20.5V8.5C5.13334 7.70435 5.42834 6.94129 5.95344 6.37868C6.47854 5.81607 7.19073 5.5 7.93334 5.5H17.0333C17.219 5.5 17.397 5.42098 17.5283 5.28033C17.6596 5.13968 17.7333 4.94891 17.7333 4.75C17.7333 4.55109 17.6596 4.36032 17.5283 4.21967C17.397 4.07902 17.219 4 17.0333 4H7.93334C6.81943 4 5.75114 4.47411 4.96349 5.31802C4.17584 6.16193 3.73334 7.30653 3.73334 8.5V20.5C3.73334 21.6935 4.17584 22.8381 4.96349 23.682C5.75114 24.5259 6.81943 25 7.93334 25H17.0333ZM18.6377 8.719C18.7028 8.64916 18.78 8.59374 18.8651 8.55593C18.9501 8.51812 19.0413 8.49866 19.1333 8.49866C19.2254 8.49866 19.3166 8.51812 19.4016 8.55593C19.4867 8.59374 19.5639 8.64916 19.6289 8.719L24.5289 13.969C24.5941 14.0387 24.6458 14.1214 24.6811 14.2126C24.7164 14.3037 24.7346 14.4013 24.7346 14.5C24.7346 14.5987 24.7164 14.6963 24.6811 14.7874C24.6458 14.8786 24.5941 14.9613 24.5289 15.031L19.6289 20.281C19.5639 20.3507 19.4866 20.406 19.4016 20.4438C19.3165 20.4815 19.2254 20.5009 19.1333 20.5009C19.0413 20.5009 18.9502 20.4815 18.8651 20.4438C18.7801 20.406 18.7028 20.3507 18.6377 20.281C18.5727 20.2113 18.521 20.1285 18.4858 20.0374C18.4506 19.9463 18.4325 19.8486 18.4325 19.75C18.4325 19.6514 18.4506 19.5537 18.4858 19.4626C18.521 19.3715 18.5727 19.2887 18.6377 19.219L22.3435 15.25H10.0333C9.84769 15.25 9.66964 15.171 9.53836 15.0303C9.40709 14.8897 9.33334 14.6989 9.33334 14.5C9.33334 14.3011 9.40709 14.1103 9.53836 13.9697C9.66964 13.829 9.84769 13.75 10.0333 13.75H22.3435L18.6377 9.781C18.5725 9.71133 18.5208 9.62857 18.4855 9.53745C18.4503 9.44633 18.4321 9.34865 18.4321 9.25C18.4321 9.15135 18.4503 9.05367 18.4855 8.96255C18.5208 8.87143 18.5725 8.78867 18.6377 8.719Z" fill="white"/>
</svg>
