<svg width="46" height="46" viewBox="0 0 46 46" fill="none" xmlns="http://www.w3.org/2000/svg">
<path d="M23.4475 6.89375C23.4475 6.89375 12.1975 19.55 12.1975 27.05C12.1975 33.275 17.2413 38.3 23.4475 38.3C26.4312 38.3 29.2927 37.1147 31.4025 35.005C33.5122 32.8952 34.6975 30.0337 34.6975 27.05C34.6975 19.55 23.4475 6.89375 23.4475 6.89375ZM28.0788 19.4938L30.0663 21.4813L18.8163 32.7313L16.8288 30.7438M19.2288 19.55C19.8504 19.55 20.4465 19.7969 20.886 20.2365C21.3256 20.676 21.5725 21.2722 21.5725 21.8938C21.5725 22.5154 21.3256 23.1115 20.886 23.551C20.4465 23.9906 19.8504 24.2375 19.2288 24.2375C18.6072 24.2375 18.011 23.9906 17.5715 23.551C17.1319 23.1115 16.885 22.5154 16.885 21.8938C16.885 21.2722 17.1319 20.676 17.5715 20.2365C18.011 19.7969 18.6072 19.55 19.2288 19.55ZM27.6663 27.9875C28.2879 27.9875 28.884 28.2344 29.3235 28.674C29.7631 29.1135 30.01 29.7097 30.01 30.3313C30.01 30.9529 29.7631 31.549 29.3235 31.9885C28.884 32.4281 28.2879 32.675 27.6663 32.675C27.0447 32.675 26.4485 32.4281 26.009 31.9885C25.5694 31.549 25.3225 30.9529 25.3225 30.3313C25.3225 29.7097 25.5694 29.1135 26.009 28.674C26.4485 28.2344 27.0447 27.9875 27.6663 27.9875Z" fill="url(#paint0_linear_59_54)"/>
<defs>
<linearGradient id="paint0_linear_59_54" x1="23.4475" y1="6.89375" x2="23.4475" y2="38.3" gradientUnits="userSpaceOnUse">
<stop stop-color="#002EA4"/>
<stop offset="1" stop-color="#1EC2E6"/>
</linearGradient>
</defs>
</svg>
