<svg width="40" height="40" viewBox="0 0 40 40" fill="none" xmlns="http://www.w3.org/2000/svg">
<path d="M19.9999 18.3333C19.5579 18.3333 19.134 18.5089 18.8214 18.8215C18.5088 19.134 18.3333 19.558 18.3333 20C18.3333 20.442 18.5088 20.8659 18.8214 21.1785C19.134 21.4911 19.5579 21.6667 19.9999 21.6667C20.4419 21.6667 20.8659 21.4911 21.1784 21.1785C21.491 20.8659 21.6666 20.442 21.6666 20C21.6666 19.558 21.491 19.134 21.1784 18.8215C20.8659 18.5089 20.4419 18.3333 19.9999 18.3333ZM20.8333 3.33333C28.3333 3.33333 28.5166 9.28333 24.5833 11.25C22.9333 12.0667 22.1999 13.8167 21.8833 15.3667C22.6833 15.7 23.3833 16.2167 23.9166 16.8833C30.0833 13.55 36.7166 14.8667 36.7166 20.8333C36.7166 28.3333 30.7666 28.5 28.7999 24.55C27.9666 22.9 26.1999 22.1667 24.6499 21.85C24.3166 22.65 23.7999 23.3333 23.1333 23.9C26.4499 30.05 25.1333 36.6667 19.1666 36.6667C11.6666 36.6667 11.5166 30.7 15.4499 28.7333C17.0833 27.9167 17.8166 26.1833 18.1499 24.65C17.3333 24.3167 16.6166 23.7833 16.0833 23.1167C9.93325 26.4167 3.33325 25.1167 3.33325 19.1667C3.33325 11.6667 9.26659 11.4833 11.2333 15.4333C12.0666 17.0833 13.8166 17.8 15.3666 18.1167C15.6833 17.3167 16.2166 16.6167 16.8999 16.0833C13.5833 9.93333 14.8999 3.33333 20.8333 3.33333Z" fill="url(#paint0_linear_65_35)"/>
<defs>
<linearGradient id="paint0_linear_65_35" x1="20.0249" y1="3.33333" x2="20.0249" y2="36.6667" gradientUnits="userSpaceOnUse">
<stop stop-color="#2B2B2B"/>
<stop offset="1" stop-color="#7C7676"/>
</linearGradient>
</defs>
</svg>
