<svg width="45" height="46" viewBox="0 0 45 46" fill="none" xmlns="http://www.w3.org/2000/svg">
<g filter="url(#filter0_d_192_138)">
<mask id="path-1-inside-1_192_138" fill="white">
<path d="M22.5 6.09375C22.5 6.09375 11.25 18.75 11.25 26.25C11.25 32.475 16.2938 37.5 22.5 37.5C25.4837 37.5 28.3452 36.3147 30.455 34.205C32.5647 32.0952 33.75 29.2337 33.75 26.25C33.75 18.75 22.5 6.09375 22.5 6.09375ZM27.1313 18.6938L29.1187 20.6812L17.8687 31.9313L15.8813 29.9438M18.2812 18.75C18.9029 18.75 19.499 18.9969 19.9385 19.4365C20.3781 19.876 20.625 20.4721 20.625 21.0938C20.625 21.7154 20.3781 22.3115 19.9385 22.751C19.499 23.1906 18.9029 23.4375 18.2812 23.4375C17.6596 23.4375 17.0635 23.1906 16.624 22.751C16.1844 22.3115 15.9375 21.7154 15.9375 21.0938C15.9375 20.4721 16.1844 19.876 16.624 19.4365C17.0635 18.9969 17.6596 18.75 18.2812 18.75ZM26.7188 27.1875C27.3404 27.1875 27.9365 27.4344 28.376 27.874C28.8156 28.3135 29.0625 28.9096 29.0625 29.5312C29.0625 30.1529 28.8156 30.749 28.376 31.1885C27.9365 31.6281 27.3404 31.875 26.7188 31.875C26.0971 31.875 25.501 31.6281 25.0615 31.1885C24.6219 30.749 24.375 30.1529 24.375 29.5312C24.375 28.9096 24.6219 28.3135 25.0615 27.874C25.501 27.4344 26.0971 27.1875 26.7188 27.1875Z"/>
</mask>
<path d="M22.5 6.09375C22.5 6.09375 11.25 18.75 11.25 26.25C11.25 32.475 16.2938 37.5 22.5 37.5C25.4837 37.5 28.3452 36.3147 30.455 34.205C32.5647 32.0952 33.75 29.2337 33.75 26.25C33.75 18.75 22.5 6.09375 22.5 6.09375ZM27.1313 18.6938L29.1187 20.6812L17.8687 31.9313L15.8813 29.9438M18.2812 18.75C18.9029 18.75 19.499 18.9969 19.9385 19.4365C20.3781 19.876 20.625 20.4721 20.625 21.0938C20.625 21.7154 20.3781 22.3115 19.9385 22.751C19.499 23.1906 18.9029 23.4375 18.2812 23.4375C17.6596 23.4375 17.0635 23.1906 16.624 22.751C16.1844 22.3115 15.9375 21.7154 15.9375 21.0938C15.9375 20.4721 16.1844 19.876 16.624 19.4365C17.0635 18.9969 17.6596 18.75 18.2812 18.75ZM26.7188 27.1875C27.3404 27.1875 27.9365 27.4344 28.376 27.874C28.8156 28.3135 29.0625 28.9096 29.0625 29.5312C29.0625 30.1529 28.8156 30.749 28.376 31.1885C27.9365 31.6281 27.3404 31.875 26.7188 31.875C26.0971 31.875 25.501 31.6281 25.0615 31.1885C24.6219 30.749 24.375 30.1529 24.375 29.5312C24.375 28.9096 24.6219 28.3135 25.0615 27.874C25.501 27.4344 26.0971 27.1875 26.7188 27.1875Z" fill="url(#paint0_linear_192_138)"/>
<path d="M22.5 6.09375L22.5747 6.02731L22.5 5.94323L22.4253 6.02731L22.5 6.09375ZM22.5 37.5V37.6V37.5ZM29.1187 20.6812L29.1895 20.752L29.2602 20.6812L29.1895 20.6105L29.1187 20.6812ZM17.8687 31.9313L17.798 32.002L17.8687 32.0727L17.9395 32.002L17.8687 31.9313ZM18.2812 18.75V18.65V18.75ZM22.5 6.09375C22.4253 6.02731 22.4252 6.02737 22.4251 6.02748C22.425 6.02758 22.4249 6.02774 22.4247 6.02794C22.4244 6.02833 22.4238 6.02893 22.4231 6.02971C22.4217 6.03127 22.4197 6.0336 22.417 6.03669C22.4115 6.04286 22.4034 6.05205 22.3927 6.0642C22.3713 6.0885 22.3396 6.12462 22.2983 6.17201C22.2157 6.26679 22.0946 6.40668 21.9405 6.58733C21.6324 6.94863 21.1924 7.47297 20.6644 8.12558C19.6086 9.43069 18.2007 11.2493 16.7925 13.3028C15.3846 15.3561 13.9751 17.6461 12.9173 19.8939C11.8604 22.1398 11.15 24.353 11.15 26.25H11.35C11.35 24.397 12.0458 22.2156 13.0983 19.9791C14.1499 17.7445 15.5529 15.4643 16.9575 13.4159C18.3618 11.3679 19.7664 9.55369 20.8199 8.25137C21.3467 7.60027 21.7856 7.07725 22.0927 6.71711C22.2463 6.53704 22.3669 6.3977 22.449 6.30342C22.4901 6.25629 22.5216 6.22042 22.5428 6.19637C22.5534 6.18434 22.5614 6.17527 22.5667 6.16921C22.5694 6.16619 22.5714 6.16392 22.5728 6.16241C22.5734 6.16166 22.5739 6.16109 22.5743 6.16072C22.5744 6.16054 22.5745 6.1604 22.5746 6.16031C22.5747 6.16022 22.5747 6.16019 22.5 6.09375ZM11.15 26.25C11.15 32.5303 16.2386 37.6 22.5 37.6V37.4C16.3489 37.4 11.35 32.4197 11.35 26.25H11.15ZM22.5 37.6C25.5102 37.6 28.3971 36.4042 30.5257 34.2757L30.3842 34.1342C28.2932 36.2253 25.4572 37.4 22.5 37.4V37.6ZM30.5257 34.2757C32.6542 32.1471 33.85 29.2602 33.85 26.25H33.65C33.65 29.2072 32.4753 32.0432 30.3842 34.1342L30.5257 34.2757ZM33.85 26.25C33.85 24.353 33.1396 22.1398 32.0827 19.8939C31.0249 17.6461 29.6154 15.3561 28.2075 13.3028C26.7993 11.2493 25.3914 9.43069 24.3356 8.12558C23.8076 7.47297 23.3676 6.94863 23.0595 6.58733C22.9054 6.40668 22.7843 6.26679 22.7017 6.17201C22.6604 6.12462 22.6287 6.0885 22.6073 6.0642C22.5966 6.05205 22.5885 6.04286 22.583 6.03669C22.5803 6.0336 22.5783 6.03127 22.5769 6.02971C22.5762 6.02893 22.5756 6.02833 22.5753 6.02794C22.5751 6.02774 22.575 6.02758 22.5749 6.02748C22.5748 6.02737 22.5747 6.02731 22.5 6.09375C22.4253 6.16019 22.4253 6.16022 22.4254 6.16031C22.4255 6.1604 22.4256 6.16054 22.4257 6.16072C22.4261 6.16109 22.4266 6.16166 22.4272 6.16241C22.4286 6.16392 22.4306 6.16619 22.4333 6.16921C22.4386 6.17527 22.4466 6.18434 22.4572 6.19637C22.4784 6.22042 22.5099 6.25629 22.551 6.30342C22.6331 6.3977 22.7537 6.53704 22.9073 6.71711C23.2144 7.07725 23.6533 7.60027 24.1801 8.25137C25.2336 9.55369 26.6382 11.3679 28.0425 13.4159C29.4471 15.4643 30.8501 17.7445 31.9017 19.9791C32.9542 22.2156 33.65 24.397 33.65 26.25H33.85ZM27.0605 18.7645L29.048 20.752L29.1895 20.6105L27.202 18.623L27.0605 18.7645ZM29.048 20.6105L17.798 31.8605L17.9395 32.002L29.1895 20.752L29.048 20.6105ZM17.9395 31.8605L15.952 29.873L15.8105 30.0145L17.798 32.002L17.9395 31.8605ZM18.2812 18.85C18.8763 18.85 19.447 19.0864 19.8678 19.5072L20.0092 19.3658C19.551 18.9075 18.9294 18.65 18.2812 18.65V18.85ZM19.8678 19.5072C20.2886 19.928 20.525 20.4987 20.525 21.0938H20.725C20.725 20.4456 20.4675 19.824 20.0092 19.3658L19.8678 19.5072ZM20.525 21.0938C20.525 21.6888 20.2886 22.2595 19.8678 22.6803L20.0092 22.8217C20.4675 22.3635 20.725 21.7419 20.725 21.0938H20.525ZM19.8678 22.6803C19.447 23.1011 18.8763 23.3375 18.2812 23.3375V23.5375C18.9294 23.5375 19.551 23.28 20.0092 22.8217L19.8678 22.6803ZM18.2812 23.3375C17.6862 23.3375 17.1155 23.1011 16.6947 22.6803L16.5533 22.8217C17.0115 23.28 17.6331 23.5375 18.2812 23.5375V23.3375ZM16.6947 22.6803C16.2739 22.2595 16.0375 21.6888 16.0375 21.0938H15.8375C15.8375 21.7419 16.095 22.3635 16.5533 22.8217L16.6947 22.6803ZM16.0375 21.0938C16.0375 20.4987 16.2739 19.928 16.6947 19.5072L16.5533 19.3658C16.095 19.824 15.8375 20.4456 15.8375 21.0938H16.0375ZM16.6947 19.5072C17.1155 19.0864 17.6862 18.85 18.2812 18.85V18.65C17.6331 18.65 17.0115 18.9075 16.5533 19.3658L16.6947 19.5072ZM26.7188 27.2875C27.3138 27.2875 27.8845 27.5239 28.3053 27.9447L28.4467 27.8033C27.9885 27.345 27.3669 27.0875 26.7188 27.0875V27.2875ZM28.3053 27.9447C28.7261 28.3655 28.9625 28.9362 28.9625 29.5312H29.1625C29.1625 28.8831 28.905 28.2615 28.4467 27.8033L28.3053 27.9447ZM28.9625 29.5312C28.9625 30.1263 28.7261 30.697 28.3053 31.1178L28.4467 31.2592C28.905 30.801 29.1625 30.1794 29.1625 29.5312H28.9625ZM28.3053 31.1178C27.8845 31.5386 27.3138 31.775 26.7188 31.775V31.975C27.3669 31.975 27.9884 31.7175 28.4467 31.2592L28.3053 31.1178ZM26.7188 31.775C26.1237 31.775 25.553 31.5386 25.1322 31.1178L24.9908 31.2592C25.449 31.7175 26.0706 31.975 26.7188 31.975V31.775ZM25.1322 31.1178C24.7114 30.697 24.475 30.1263 24.475 29.5312H24.275C24.275 30.1794 24.5325 30.801 24.9908 31.2592L25.1322 31.1178ZM24.475 29.5312C24.475 28.9362 24.7114 28.3655 25.1322 27.9447L24.9908 27.8033C24.5325 28.2615 24.275 28.8831 24.275 29.5312H24.475ZM25.1322 27.9447C25.553 27.5239 26.1237 27.2875 26.7188 27.2875V27.0875C26.0706 27.0875 25.449 27.345 24.9908 27.8033L25.1322 27.9447Z" fill="black" mask="url(#path-1-inside-1_192_138)"/>
</g>
<defs>
<filter id="filter0_d_192_138" x="-4" y="0" width="53" height="53" filterUnits="userSpaceOnUse" color-interpolation-filters="sRGB">
<feFlood flood-opacity="0" result="BackgroundImageFix"/>
<feColorMatrix in="SourceAlpha" type="matrix" values="0 0 0 0 0 0 0 0 0 0 0 0 0 0 0 0 0 0 127 0" result="hardAlpha"/>
<feOffset dy="4"/>
<feGaussianBlur stdDeviation="2"/>
<feComposite in2="hardAlpha" operator="out"/>
<feColorMatrix type="matrix" values="0 0 0 0 0 0 0 0 0 0 0 0 0 0 0 0 0 0 0.25 0"/>
<feBlend mode="normal" in2="BackgroundImageFix" result="effect1_dropShadow_192_138"/>
<feBlend mode="normal" in="SourceGraphic" in2="effect1_dropShadow_192_138" result="shape"/>
</filter>
<linearGradient id="paint0_linear_192_138" x1="22.5" y1="6.09375" x2="22.5" y2="37.5" gradientUnits="userSpaceOnUse">
<stop offset="0.630208" stop-color="white"/>
<stop offset="1" stop-color="#1EC2E6"/>
</linearGradient>
</defs>
</svg>
