<svg width="74" height="75" viewBox="0 0 74 75" fill="none" xmlns="http://www.w3.org/2000/svg">
<path d="M14.4306 70.3125H59.5695V58.5938C59.5647 54.2441 57.8987 50.074 54.9369 46.9983C51.9751 43.9226 47.9595 42.1925 43.7709 42.1875H30.2292C26.0406 42.1925 22.025 43.9226 19.0632 46.9983C16.1014 50.074 14.4354 54.2441 14.4306 58.5938V70.3125ZM21.2014 21.0938C21.2014 24.3386 22.128 27.5106 23.864 30.2086C25.6 32.9066 28.0674 35.0094 30.9542 36.2511C33.841 37.4929 37.0176 37.8178 40.0822 37.1848C43.1468 36.5517 45.9619 34.9892 48.1714 32.6947C50.3808 30.4003 51.8855 27.477 52.4951 24.2945C53.1047 21.1119 52.7918 17.8132 51.5961 14.8154C50.4003 11.8175 48.3754 9.25519 45.7773 7.45245C43.1792 5.64971 40.1247 4.6875 37 4.6875C32.81 4.6875 28.7916 6.41601 25.8287 9.49278C22.8659 12.5695 21.2014 16.7425 21.2014 21.0938Z" fill="#828F1A"/>
</svg>
